<svg width="1972" height="2138" xmlns="http://www.w3.org/2000/svg" xmlns:xlink="http://www.w3.org/1999/xlink" overflow="hidden"><defs><clipPath id="clip0"><rect x="2276" y="155" width="1972" height="2138"/></clipPath></defs><g clip-path="url(#clip0)" transform="translate(-2276 -155)"><path d="M3124.35 1531.08C3134.67 1531.08 3144.99 1535.02 3152.87 1542.89L3272.81 1662.87 3390.62 1545.03C3406.37 1529.27 3431.91 1529.27 3447.66 1545.03 3463.41 1560.78 3463.41 1586.33 3447.66 1602.09L3315.72 1734.08 3315.72 1887.04 3478.92 1981.29C3498.21 1992.44 3504.82 2017.11 3493.68 2036.41 3482.55 2055.71 3457.88 2062.32 3438.58 2051.18L3275.91 1957.23 3275.89 1957.25 3102.4 2057.45C3083.11 2068.59 3058.44 2061.98 3047.3 2042.68 3036.16 2023.38 3042.77 1998.71 3062.06 1987.56L3235.04 1887.66 3235.04 1739.22 3095.82 1599.96C3080.07 1584.2 3080.07 1558.65 3095.82 1542.89 3103.7 1535.02 3114.02 1531.08 3124.35 1531.08ZM3230.15 1312.15 3230.15 1332.94C3230.15 1436.93 3145.88 1521.23 3041.92 1521.23L2899.32 1521.23 2867.91 1575.89C2839.17 1635.55 2823.07 1702.45 2823.07 1773.11 2823.07 2024.35 3026.67 2228.01 3277.82 2228.01 3528.98 2228.01 3732.58 2024.35 3732.58 1773.11 3732.58 1702.45 3716.48 1635.55 3687.74 1575.89L3656.33 1521.23 3499.06 1521.23C3395.1 1521.23 3310.83 1436.93 3310.83 1332.94L3310.83 1312.15ZM3497.94 1220.56C3503.13 1219.84 3508.55 1220.12 3513.92 1221.56L3707.44 1273.43C3728.95 1279.2 3741.72 1301.32 3735.96 1322.85 3730.19 1344.37 3708.07 1357.15 3686.56 1351.38L3493.05 1299.51C3471.53 1293.74 3458.76 1271.62 3464.52 1250.09 3468.85 1233.95 3482.37 1222.73 3497.94 1220.56ZM3048.27 1220.56C3063.84 1222.73 3077.36 1233.95 3081.69 1250.09 3087.45 1271.62 3074.68 1293.74 3053.16 1299.51L2859.65 1351.38C2838.14 1357.15 2816.02 1344.37 2810.25 1322.85 2804.49 1301.32 2817.26 1279.2 2838.77 1273.43L3032.28 1221.56C3037.66 1220.12 3043.08 1219.84 3048.27 1220.56ZM3315.98 1197.59 3262 1198.82 3225.12 1197.98 3226.33 1202.06 3229.29 1231.45 3311.69 1231.45 3314.65 1202.06ZM2744.08 1165.55 2730.45 1190.67C2722.83 1208.69 2718.62 1228.5 2718.62 1249.3L2718.62 1323.64C2718.62 1406.84 2786.04 1474.28 2869.21 1474.28L3022.73 1474.28C3105.9 1474.28 3173.32 1406.84 3173.32 1323.64L3173.32 1249.3C3173.32 1238.9 3172.26 1228.75 3170.26 1218.94L3163.32 1196.58 3063.29 1194.32C2967.01 1189.89 2875.84 1182.32 2792.01 1172.09ZM3795.3 1163.45 3731.99 1172.09C3648.16 1182.32 3556.99 1189.89 3460.71 1194.32L3377.78 1196.19 3370.72 1218.94C3368.72 1228.75 3367.66 1238.9 3367.66 1249.3L3367.66 1323.64C3367.66 1406.84 3435.08 1474.28 3518.25 1474.28L3671.77 1474.28C3754.94 1474.28 3822.36 1406.84 3822.36 1323.64L3822.36 1249.3C3822.36 1218.1 3812.88 1189.12 3796.64 1165.08ZM3267.89 155C3448.04 155 3598.34 200.507 3633.1 261.001L3633.59 262.143 3638.07 262.143 3706.51 779.902 3731.99 782.657C4039.35 820.156 4248 893.292 4248 977.373 4248 1046.17 4108.32 1107.63 3889.19 1148.25L3857.29 1153.61 3864.41 1166.72C3873.93 1189.24 3879.2 1214.01 3879.2 1240.01L3879.2 1332.94C3879.2 1410.93 3831.8 1477.85 3764.23 1506.43L3729.84 1517.11 3734.82 1525.3C3774.82 1598.97 3797.55 1683.38 3797.55 1773.11 3797.55 2060.24 3564.86 2293 3277.82 2293 2990.79 2293 2758.1 2060.24 2758.1 1773.11 2758.1 1683.38 2780.83 1598.97 2820.83 1525.3L2824.85 1518.69 2812.08 1517.41C2726.31 1499.85 2661.78 1423.93 2661.78 1332.94L2661.78 1240.01C2661.78 1214.01 2667.05 1189.24 2676.57 1166.72L2682.27 1156.22 2634.81 1148.25C2415.68 1107.63 2276 1046.17 2276 977.373 2276 893.292 2484.65 820.156 2792.01 782.657L2828.58 778.702 2896.86 262.143 2902.18 262.143 2902.67 261.001C2937.43 200.507 3087.74 155 3267.89 155Z" fill="#D9D9D9" fill-rule="evenodd"/></g></svg>