<svg width="1971" height="2137" xmlns="http://www.w3.org/2000/svg" xmlns:xlink="http://www.w3.org/1999/xlink" overflow="hidden"><defs><clipPath id="clip0"><rect x="537" y="169" width="1971" height="2137"/></clipPath></defs><g clip-path="url(#clip0)" transform="translate(-537 -169)"><path d="M1384.92 1544.43C1395.23 1544.43 1405.55 1548.37 1413.42 1556.25L1533.3 1676.17 1651.05 1558.38C1666.8 1542.63 1692.32 1542.63 1708.07 1558.38 1723.81 1574.13 1723.81 1599.66 1708.07 1615.41L1576.19 1747.34 1576.19 1900.23 1739.31 1994.44C1758.59 2005.58 1765.2 2030.24 1754.07 2049.53 1742.93 2068.82 1718.28 2075.43 1698.99 2064.29L1536.41 1970.39 1536.39 1970.41 1362.98 2070.56C1343.7 2081.7 1319.04 2075.09 1307.91 2055.8 1296.77 2036.51 1303.38 2011.84 1322.66 2000.71L1495.56 1900.85 1495.56 1752.48 1356.41 1613.28C1340.66 1597.53 1340.66 1572 1356.41 1556.25 1364.28 1548.37 1374.6 1544.43 1384.92 1544.43ZM1490.67 1325.61 1490.67 1346.38C1490.67 1450.33 1406.44 1534.59 1302.53 1534.59L1160 1534.59 1128.61 1589.23C1099.89 1648.86 1083.79 1715.73 1083.79 1786.35 1083.79 2037.47 1287.29 2241.04 1538.32 2241.04 1789.34 2241.04 1992.84 2037.47 1992.84 1786.35 1992.84 1715.73 1976.75 1648.86 1948.02 1589.23L1916.63 1534.59 1759.44 1534.59C1655.53 1534.59 1571.3 1450.33 1571.3 1346.38L1571.3 1325.61ZM1758.32 1234.06C1763.51 1233.34 1768.92 1233.62 1774.3 1235.06L1967.71 1286.91C1989.22 1292.67 2001.98 1314.79 1996.22 1336.3 1990.45 1357.82 1968.35 1370.59 1946.84 1364.82L1753.43 1312.98C1731.92 1307.21 1719.16 1285.1 1724.92 1263.58 1729.24 1247.45 1742.76 1236.23 1758.32 1234.06ZM1308.88 1234.06C1324.44 1236.23 1337.95 1247.45 1342.28 1263.58 1348.04 1285.1 1335.28 1307.21 1313.77 1312.98L1120.36 1364.82C1098.85 1370.59 1076.74 1357.82 1070.98 1336.3 1065.22 1314.79 1077.98 1292.67 1099.49 1286.91L1292.9 1235.06C1298.28 1233.62 1303.69 1233.34 1308.88 1234.06ZM1576.45 1211.11 1522.5 1212.33 1485.64 1211.49 1486.85 1215.57 1489.81 1244.95 1572.16 1244.95 1575.12 1215.57ZM1004.85 1179.08 991.223 1204.18C983.606 1222.2 979.395 1242 979.395 1262.79L979.395 1337.1C979.395 1420.25 1046.78 1487.66 1129.91 1487.66L1283.35 1487.66C1366.48 1487.66 1433.86 1420.25 1433.86 1337.1L1433.86 1262.79C1433.86 1252.4 1432.81 1242.25 1430.8 1232.45L1423.87 1210.09 1323.89 1207.83C1227.66 1203.41 1136.54 1195.83 1052.75 1185.61ZM2055.53 1176.98 1992.25 1185.61C1908.46 1195.83 1817.34 1203.41 1721.11 1207.83L1638.22 1209.71 1631.17 1232.45C1629.16 1242.25 1628.11 1252.4 1628.11 1262.79L1628.11 1337.1C1628.11 1420.25 1695.5 1487.66 1778.62 1487.66L1932.07 1487.66C2015.19 1487.66 2082.58 1420.25 2082.58 1337.1L2082.58 1262.79C2082.58 1231.61 2073.1 1202.64 2056.87 1178.61ZM1528.38 169C1708.44 169 1858.67 214.485 1893.41 274.952L1893.9 276.093 1898.38 276.093 1966.79 793.609 1992.25 796.364C2299.45 833.845 2508 906.947 2508 990.988 2508 1059.75 2368.39 1121.19 2149.37 1161.78L2117.49 1167.14 2124.6 1180.24C2134.12 1202.76 2139.39 1227.52 2139.39 1253.5L2139.39 1346.38C2139.39 1424.34 2092.01 1491.23 2024.48 1519.8L1990.11 1530.48 1995.08 1538.66C2035.06 1612.29 2057.77 1696.67 2057.77 1786.35 2057.77 2073.35 1825.21 2306 1538.32 2306 1251.43 2306 1018.86 2073.35 1018.86 1786.35 1018.86 1696.67 1041.57 1612.29 1081.55 1538.66L1085.57 1532.05 1072.81 1530.77C987.077 1513.22 922.586 1437.34 922.586 1346.38L922.586 1253.5C922.586 1227.52 927.851 1202.76 937.371 1180.24L943.064 1169.75 895.63 1161.78C676.606 1121.19 537 1059.75 537 990.988 537 906.947 745.547 833.845 1052.75 796.364L1089.29 792.41 1157.55 276.093 1162.86 276.093 1163.35 274.952C1198.1 214.485 1348.32 169 1528.38 169Z" fill="#FFFFFF" fill-rule="evenodd"/></g></svg>