<svg width="910" height="909" xmlns="http://www.w3.org/2000/svg" xmlns:xlink="http://www.w3.org/1999/xlink" overflow="hidden"><defs><clipPath id="clip0"><rect x="372" y="210" width="910" height="909"/></clipPath></defs><g clip-path="url(#clip0)" transform="translate(-372 -210)"><rect x="372" y="210" width="910" height="909" fill="#F2F2F2"/><path d="M666.195 503.987C678.879 491.303 699.445 491.303 712.129 503.987L826.964 618.822 941.8 503.987C954.484 491.303 975.049 491.303 987.734 503.987 1000.42 516.672 1000.42 537.237 987.734 549.921L872.898 664.757 987.734 779.592C1000.42 792.276 1000.42 812.841 987.734 825.526 975.049 838.21 954.484 838.21 941.8 825.526L826.964 710.691 712.129 825.526C699.445 838.21 678.879 838.21 666.195 825.526 653.511 812.841 653.511 792.276 666.195 779.592L781.03 664.757 666.195 549.921C653.511 537.237 653.511 516.672 666.195 503.987Z" fill-rule="evenodd"/></g></svg>