<svg width="190" height="191" xmlns="http://www.w3.org/2000/svg" xmlns:xlink="http://www.w3.org/1999/xlink" overflow="hidden"><defs><clipPath id="clip0"><rect x="612" y="-30" width="190" height="191"/></clipPath></defs><g clip-path="url(#clip0)" transform="translate(-612 30)"><path d="M707.5 13.12C728.148 13.12 744.887 29.8588 744.887 50.507 744.887 71.1553 728.148 87.8941 707.5 87.8941 686.852 87.8941 670.113 71.1553 670.113 50.507 670.113 29.8588 686.852 13.12 707.5 13.12ZM707.5-21.44C659.484-21.44 620.56 17.4843 620.56 65.5 620.56 89.5078 630.291 111.243 646.024 126.976L649.157 129.561 649.157 104.619C649.157 97.9177 654.59 92.4848 661.292 92.4848L678.242 92.4848 680.102 95.9125C686.364 105.18 696.967 111.274 708.993 111.274 721.02 111.274 731.623 105.18 737.884 95.9125L739.745 92.4848 756.694 92.4848C763.396 92.4848 768.829 97.9177 768.829 104.619L768.829 127.097 768.976 126.976C784.709 111.243 794.44 89.5078 794.44 65.5 794.44 17.4843 755.516-21.44 707.5-21.44ZM707.5-29C759.691-29 802 13.3091 802 65.5 802 117.691 759.691 160 707.5 160 655.309 160 613 117.691 613 65.5 613 13.3091 655.309-29 707.5-29Z" fill="#FFFFFF" fill-rule="evenodd"/></g></svg>