<svg width="909" height="909" xmlns="http://www.w3.org/2000/svg" xmlns:xlink="http://www.w3.org/1999/xlink" overflow="hidden"><defs><clipPath id="clip0"><rect x="1401" y="1364" width="909" height="909"/></clipPath></defs><g clip-path="url(#clip0)" transform="translate(-1401 -1364)"><rect x="1401" y="1364" width="909" height="909" fill="#F2F2F2"/><path d="M1751.89 1860.2 1775.43 1872.97C1799.63 1883.2 1826.22 1888.86 1854.14 1888.86 1882.05 1888.86 1908.65 1883.2 1932.84 1872.97L1956.38 1860.2 2065.5 2118.96 2011.54 2148.24C1963.16 2168.69 1909.97 2180 1854.13 2180 1798.3 2180 1745.11 2168.69 1696.73 2148.24L1642.77 2118.96ZM1859.03 1456C1942.78 1456 2014.64 1506.9 2045.33 1579.43L2054.65 1609.43 2056.26 1608.34C2063.73 1605.18 2071.95 1603.43 2080.57 1603.43 2115.05 1603.43 2143 1631.37 2143 1665.84 2143 1700.3 2115.05 1728.24 2080.57 1728.24 2071.95 1728.24 2063.73 1726.5 2056.26 1723.34L2050.67 1719.57 2045.33 1736.77C2014.64 1809.3 1942.78 1860.2 1859.03 1860.2 1817.15 1860.2 1778.25 1847.48 1745.98 1825.68L1737.5 1817.98 1736.69 1817.98 1736.69 1817.24 1703.01 1786.65C1690.65 1771.68 1680.4 1754.9 1672.73 1736.77L1665.11 1712.22 1654.74 1719.21C1647.27 1722.37 1639.05 1724.11 1630.43 1724.11 1595.95 1724.11 1568 1696.18 1568 1661.71 1568 1627.24 1595.95 1599.3 1630.43 1599.3 1639.05 1599.3 1647.27 1601.05 1654.74 1604.21L1663.25 1609.95 1672.73 1579.43C1703.42 1506.9 1775.28 1456 1859.03 1456Z" fill-rule="evenodd"/></g></svg>