<svg width="190" height="191" xmlns="http://www.w3.org/2000/svg" xmlns:xlink="http://www.w3.org/1999/xlink" overflow="hidden"><defs><clipPath id="clip0"><rect x="73" y="79" width="190" height="191"/></clipPath></defs><g clip-path="url(#clip0)" transform="translate(-73 -79)"><rect x="73" y="80" width="189" height="189" fill="#4472C4" fill-opacity="0"/><path d="M98 174C98 135.34 129.34 104 168 104 206.66 104 238 135.34 238 174 238 212.66 206.66 244 168 244 129.34 244 98 212.66 98 174Z" stroke="#000000" stroke-width="4" stroke-miterlimit="8" fill="none" fill-rule="evenodd"/><path d="M149.843 191 153.909 193.197C158.086 194.956 162.679 195.928 167.5 195.928 172.321 195.928 176.914 194.956 181.091 193.197L185.157 191 204 235.502 194.682 240.537C186.327 244.055 177.142 246 167.5 246 157.858 246 148.672 244.055 140.318 240.537L131 235.503Z" fill-rule="evenodd"/><path d="M168.108 121C182.527 121 194.899 129.814 200.184 142.376L201.788 147.571 202.066 147.382C203.352 146.835 204.766 146.533 206.251 146.533 212.187 146.533 217 151.371 217 157.34 217 163.309 212.187 168.148 206.251 168.148 204.766 168.148 203.352 167.845 202.066 167.298L201.103 166.646 200.184 169.624C194.899 182.186 182.527 191 168.108 191 160.898 191 154.2 188.796 148.644 185.023L147.552 184.025 147.044 184.025 147.044 183.561 141.245 178.263C139.117 175.67 137.353 172.764 136.031 169.624L134.719 165.373 132.934 166.583C131.648 167.13 130.234 167.433 128.749 167.433 122.813 167.433 118 162.594 118 156.625 118 150.656 122.813 145.818 128.749 145.818 130.234 145.818 131.648 146.12 132.934 146.667L134.4 147.661 136.031 142.376C141.316 129.814 153.688 121 168.108 121Z" fill-rule="evenodd"/></g></svg>