<svg width="910" height="910" xmlns="http://www.w3.org/2000/svg" xmlns:xlink="http://www.w3.org/1999/xlink" overflow="hidden"><defs><clipPath id="clip0"><rect x="2430" y="1353" width="910" height="910"/></clipPath></defs><g clip-path="url(#clip0)" transform="translate(-2430 -1353)"><rect x="2430" y="1353" width="910" height="910" fill="#F2F2F2"/><path d="M2885 1591C2902.91 1591 2917.43 1605.55 2917.43 1623.5L2917.43 1786 3079.57 1786C3097.48 1786 3112 1800.55 3112 1818.5 3112 1836.45 3097.48 1851 3079.57 1851L2917.43 1851 2917.43 2013.5C2917.43 2031.45 2902.91 2046 2885 2046 2867.09 2046 2852.57 2031.45 2852.57 2013.5L2852.57 1851 2690.43 1851C2672.52 1851 2658 1836.45 2658 1818.5 2658 1800.55 2672.52 1786 2690.43 1786L2852.57 1786 2852.57 1623.5C2852.57 1605.55 2867.09 1591 2885 1591Z" fill-rule="evenodd"/></g></svg>