<svg width="909" height="909" xmlns="http://www.w3.org/2000/svg" xmlns:xlink="http://www.w3.org/1999/xlink" overflow="hidden"><defs><clipPath id="clip0"><rect x="358" y="1364" width="909" height="909"/></clipPath></defs><g clip-path="url(#clip0)" transform="translate(-358 -1364)"><rect x="358" y="1364" width="909" height="909" fill="#F2F2F2"/><path d="M719.781 1571.01C612.221 1571.01 525.026 1658.2 525.027 1765.76 525.026 1873.32 612.221 1960.52 719.78 1960.52 827.34 1960.52 914.534 1873.32 914.534 1765.76 914.534 1658.2 827.34 1571.01 719.781 1571.01ZM719.78 1527.73C851.242 1527.73 957.812 1634.3 957.813 1765.76 957.813 1798.63 951.152 1829.94 939.107 1858.42L936.373 1863.45 940.182 1864.86 1117.22 2028.57C1125.21 2035.96 1125.7 2048.43 1118.31 2056.42L1064.79 2114.3C1057.4 2122.29 1044.93 2122.77 1036.94 2115.38L863.143 1954.67 852.867 1963.14C814.877 1988.81 769.079 2003.8 719.781 2003.8 588.319 2003.8 481.748 1897.23 481.748 1765.76 481.748 1634.3 588.318 1527.73 719.78 1527.73Z" fill-rule="evenodd"/></g></svg>