<svg width="190" height="191" xmlns="http://www.w3.org/2000/svg" xmlns:xlink="http://www.w3.org/1999/xlink" overflow="hidden"><defs><clipPath id="clip0"><rect x="854" y="-30" width="190" height="191"/></clipPath></defs><g clip-path="url(#clip0)" transform="translate(-854 30)"><path d="M937.048 20.2653C917.862 20.2652 902.309 35.8183 902.309 55.0041 902.309 74.1898 917.862 89.7428 937.048 89.7428 956.234 89.7428 971.787 74.1898 971.787 55.004 971.787 35.8183 956.234 20.2652 937.048 20.2653ZM937.048 8.68568C962.629 8.68568 983.366 29.4232 983.366 55.004 983.366 61.3993 982.07 67.4918 979.726 73.0333L976.03 79.8438 1006.71 110.527 992.571 124.669 961.887 93.9859 955.077 97.6825C949.536 100.026 943.443 101.322 937.048 101.322 911.467 101.322 890.729 80.585 890.73 55.004 890.729 29.4231 911.467 8.68568 937.048 8.68568ZM948.993-21.4895C900.984-21.4896 862.064 17.43 862.064 65.4397 862.064 113.449 900.984 152.369 948.993 152.369 997.003 152.369 1035.92 113.449 1035.92 65.4397 1035.92 17.43 997.003-21.4895 948.993-21.4895ZM948.993-29.0486C1001.18-29.0485 1043.48 13.2553 1043.48 65.4396 1043.48 117.624 1001.18 159.928 948.993 159.928 896.809 159.928 854.505 117.624 854.505 65.4396 854.505 13.2553 896.809-29.0486 948.993-29.0486Z" fill="#FFFFFF" fill-rule="evenodd"/></g></svg>