<svg width="191" height="191" xmlns="http://www.w3.org/2000/svg" xmlns:xlink="http://www.w3.org/1999/xlink" overflow="hidden"><defs><clipPath id="clip0"><rect x="309" y="79" width="191" height="191"/></clipPath></defs><g clip-path="url(#clip0)" transform="translate(-309 -79)"><rect x="310" y="80" width="189" height="189" fill="#4472C4" fill-opacity="0"/><rect x="425" y="191" width="47" height="8"/><rect x="445" y="171" width="7" height="48"/><path d="M364.843 186 368.909 188.197C373.086 189.956 377.679 190.928 382.5 190.928 387.321 190.928 391.914 189.956 396.091 188.197L400.157 186 419 230.502 409.682 235.537C401.327 239.055 392.142 241 382.5 241 372.858 241 363.672 239.055 355.318 235.537L346 230.503Z" fill-rule="evenodd"/><path d="M383.108 116C397.527 116 409.899 124.814 415.184 137.376L416.788 142.571 417.066 142.382C418.352 141.835 419.766 141.533 421.251 141.533 427.187 141.533 432 146.371 432 152.34 432 158.309 427.187 163.148 421.251 163.148 419.766 163.148 418.352 162.845 417.066 162.298L416.103 161.646 415.184 164.624C409.899 177.186 397.527 186 383.108 186 375.898 186 369.2 183.796 363.644 180.023L362.183 178.688 362.044 178.688 362.044 178.561 356.245 173.263C354.117 170.67 352.353 167.764 351.031 164.624L349.719 160.373 347.934 161.583C346.648 162.13 345.234 162.433 343.749 162.433 337.813 162.433 333 157.594 333 151.625 333 145.656 337.813 140.818 343.749 140.818 345.234 140.818 346.648 141.12 347.934 141.667L349.4 142.661 351.031 137.376C356.316 124.814 368.688 116 383.108 116Z" fill-rule="evenodd"/></g></svg>