<svg width="1973" height="2138" xmlns="http://www.w3.org/2000/svg" xmlns:xlink="http://www.w3.org/1999/xlink" overflow="hidden"><defs><clipPath id="clip0"><rect x="2405" y="96" width="1973" height="2138"/></clipPath></defs><g clip-path="url(#clip0)" transform="translate(-2405 -96)"><path d="M3254.09 1472.04C3264.42 1472.04 3274.74 1475.98 3282.61 1483.86L3402.55 1603.79 3520.35 1485.99C3536.1 1470.24 3561.64 1470.24 3577.39 1485.99 3593.14 1501.74 3593.14 1527.28 3577.39 1543.03L3445.45 1674.97 3445.45 1827.87 3608.64 1922.08C3627.93 1933.22 3634.54 1957.89 3623.41 1977.18 3612.27 1996.47 3587.6 2003.08 3568.31 1991.94L3405.65 1898.03 3405.63 1898.05 3232.15 1998.21C3212.86 2009.35 3188.19 2002.74 3177.05 1983.45 3165.91 1964.16 3172.52 1939.49 3191.81 1928.35L3364.78 1828.49 3364.78 1680.11 3225.57 1540.9C3209.82 1525.15 3209.82 1499.61 3225.57 1483.86 3233.45 1475.98 3243.77 1472.04 3254.09 1472.04ZM3359.89 1253.2 3359.89 1273.98C3359.89 1377.93 3275.63 1462.2 3171.67 1462.2L3029.08 1462.2 2997.68 1516.84C2968.94 1576.48 2952.84 1643.35 2952.84 1713.98 2952.84 1965.12 3156.42 2168.71 3407.56 2168.71 3627.31 2168.71 3810.65 2012.84 3853.05 1805.63L3856.74 1781.45 3858.42 1763.26 3860.44 1750.51 3862.29 1713.98C3862.29 1643.35 3846.18 1576.48 3817.45 1516.84L3786.04 1462.2 3628.78 1462.2C3524.83 1462.2 3440.56 1377.93 3440.56 1273.98L3440.56 1253.2ZM3627.66 1161.65C3632.85 1160.93 3638.27 1161.21 3643.65 1162.65L3837.14 1214.5C3858.66 1220.26 3871.43 1242.38 3865.66 1263.9 3859.9 1285.41 3837.78 1298.18 3816.26 1292.42L3622.77 1240.57C3601.25 1234.8 3588.48 1212.69 3594.25 1191.17 3598.57 1175.03 3612.09 1163.82 3627.66 1161.65ZM3178.02 1161.65C3193.59 1163.82 3207.11 1175.03 3211.44 1191.17 3217.2 1212.69 3204.43 1234.8 3182.92 1240.57L2989.42 1292.42C2967.9 1298.18 2945.79 1285.41 2940.02 1263.9 2934.25 1242.38 2947.02 1220.26 2968.54 1214.5L3162.04 1162.65C3167.42 1161.21 3172.83 1160.93 3178.02 1161.65ZM3445.71 1138.69 3391.74 1139.91 3354.86 1139.08 3356.07 1143.16 3359.03 1172.53 3441.42 1172.53 3444.39 1143.16ZM2873.86 1106.66 2860.23 1131.77C2852.61 1149.78 2848.39 1169.59 2848.39 1190.38L2848.39 1264.69C2848.39 1285.48 2852.61 1305.29 2860.23 1323.3L2871.3 1343.71 2881.28 1349.24C2891.79 1356.49 2901.58 1364.75 2910.52 1373.88L2929.73 1397.67 2940.36 1403.43C2958.38 1411.05 2978.18 1415.27 2998.97 1415.27L3152.48 1415.27C3235.65 1415.27 3303.06 1347.85 3303.06 1264.69L3303.06 1190.38C3303.06 1179.98 3302.01 1169.83 3300 1160.03L3293.06 1137.68 3193.04 1135.42C3096.77 1130.99 3005.6 1123.42 2921.78 1113.2ZM3925 1104.56 3861.69 1113.2C3777.87 1123.42 3686.71 1130.99 3590.44 1135.42L3507.51 1137.29 3500.45 1160.03C3498.45 1169.83 3497.4 1179.98 3497.39 1190.38L3497.39 1264.69C3497.39 1347.85 3564.81 1415.27 3647.97 1415.27L3801.48 1415.27C3832.67 1415.27 3861.64 1405.79 3885.67 1389.55L3890.07 1385.92 3896.05 1378.53 3915.21 1362.38 3926.35 1348.88C3942.58 1324.85 3952.06 1295.88 3952.06 1264.69L3952.06 1196.13 3951.5 1190.77 3950.98 1176.05 3950.33 1167.45C3946.9 1145.02 3938.52 1124.21 3926.35 1106.19ZM3397.62 96.5052C3577.76 96.5053 3728.05 141.994 3762.81 202.465L3763.3 203.606 3767.78 203.606 3836.22 721.162 3861.69 723.917C4169.03 761.401 4377.67 834.509 4377.67 918.556 4377.67 978.727 4270.74 1033.29 4097.21 1073.19L4053.33 1082.25 4062.06 1102.51C4073.69 1133.41 4083.24 1171.28 4089.01 1212.68 4094.78 1254.07 4095.94 1293.12 4093.2 1326.02L4092.81 1328.98 4112.67 1335.28C4183.59 1365.91 4233.35 1437.64 4233.35 1521.23 4233.35 1632.69 4144.89 1723.04 4035.76 1723.04 4022.12 1723.04 4008.8 1721.63 3995.94 1718.94L3983.62 1715.03 3973.01 1752.84C3953.4 1815.65 3927.83 1864.98 3905.06 1885.61L3895.24 1892.13 3886.41 1916.27C3807.51 2102.79 3622.82 2233.67 3407.56 2233.67 3192.3 2233.67 3007.61 2102.79 2928.72 1916.27L2911.26 1868.58 2905.05 1867.97C2879.48 1857.73 2847.37 1801.76 2823.84 1726.4L2819.7 1711.64 2800.9 1716.07C2791.08 1717.6 2781.04 1718.39 2770.8 1718.39 2661.68 1718.39 2573.22 1628.04 2573.22 1516.58 2573.22 1432.99 2622.98 1361.27 2693.9 1330.63L2709.04 1325.83 2708.59 1293.89C2709.05 1269.58 2711.13 1243.07 2714.98 1215.47 2720.74 1174.07 2729.66 1136.11 2740.21 1105.06L2747.61 1085.86 2686.27 1073.19C2512.74 1033.29 2405.81 978.727 2405.81 918.556 2405.81 834.509 2614.44 761.401 2921.78 723.917L2958.34 719.963 3026.63 203.606 3031.94 203.606 3032.43 202.465C3067.19 141.994 3217.49 96.5054 3397.62 96.5052Z" fill="#FFFFFF" fill-rule="evenodd"/></g></svg>