<svg width="1972" height="2138" xmlns="http://www.w3.org/2000/svg" xmlns:xlink="http://www.w3.org/1999/xlink" overflow="hidden"><defs><clipPath id="clip0"><rect x="2367" y="84" width="1972" height="2138"/></clipPath></defs><g clip-path="url(#clip0)" transform="translate(-2367 -84)"><path d="M3215.35 1460.08C3225.67 1460.08 3235.99 1464.02 3243.87 1471.89L3363.81 1591.87 3481.62 1474.03C3497.37 1458.27 3522.91 1458.27 3538.66 1474.03 3554.41 1489.78 3554.41 1515.33 3538.66 1531.09L3406.72 1663.08 3406.72 1816.04 3569.92 1910.29C3589.21 1921.44 3595.82 1946.11 3584.68 1965.41 3573.54 1984.71 3548.88 1991.32 3529.58 1980.18L3366.91 1886.23 3366.89 1886.25 3193.4 1986.45C3174.11 1997.59 3149.44 1990.98 3138.3 1971.68 3127.16 1952.38 3133.77 1927.71 3153.06 1916.56L3326.04 1816.66 3326.04 1668.22 3186.82 1528.96C3171.07 1513.2 3171.07 1487.65 3186.82 1471.89 3194.7 1464.02 3205.02 1460.08 3215.35 1460.08ZM3321.15 1241.15 3321.15 1261.94C3321.15 1365.93 3236.88 1450.23 3132.92 1450.23L2990.32 1450.23 2958.91 1504.89C2930.17 1564.55 2914.07 1631.45 2914.07 1702.11 2914.07 1953.35 3117.67 2157.01 3368.82 2157.01 3619.98 2157.01 3823.58 1953.35 3823.58 1702.11 3823.58 1631.45 3807.48 1564.55 3778.74 1504.89L3747.33 1450.23 3590.06 1450.23C3486.1 1450.23 3401.83 1365.93 3401.83 1261.94L3401.83 1241.15ZM3588.94 1149.56C3594.13 1148.84 3599.54 1149.12 3604.92 1150.56L3798.44 1202.43C3819.95 1208.2 3832.72 1230.32 3826.96 1251.85 3821.19 1273.37 3799.07 1286.15 3777.56 1280.38L3584.04 1228.51C3562.53 1222.74 3549.76 1200.62 3555.52 1179.09 3559.85 1162.95 3573.37 1151.73 3588.94 1149.56ZM3139.27 1149.56C3154.84 1151.73 3168.36 1162.95 3172.68 1179.09 3178.45 1200.62 3165.68 1222.74 3144.16 1228.51L2950.65 1280.38C2929.13 1286.15 2907.02 1273.37 2901.25 1251.85 2895.49 1230.32 2908.26 1208.2 2929.77 1202.43L3123.28 1150.56C3128.66 1149.12 3134.08 1148.84 3139.27 1149.56ZM3406.98 1126.59 3353 1127.82 3316.12 1126.98 3317.33 1131.06 3320.29 1160.45 3402.69 1160.45 3405.65 1131.06ZM2835.08 1094.55 2821.45 1119.67C2813.83 1137.69 2809.62 1157.5 2809.62 1178.3L2809.62 1252.64C2809.62 1273.44 2813.83 1293.26 2821.45 1311.28L2832.53 1331.69 2842.5 1337.22C2853.02 1344.48 2862.81 1352.74 2871.75 1361.88L2890.96 1385.67 2901.59 1391.44C2919.61 1399.06 2939.42 1403.28 2960.21 1403.28L3113.73 1403.28C3196.9 1403.28 3264.32 1335.84 3264.32 1252.64L3264.32 1178.3C3264.32 1167.9 3263.26 1157.75 3261.26 1147.94L3254.32 1125.58 3154.29 1123.32C3058.01 1118.89 2966.84 1111.32 2883.01 1101.09ZM3886.3 1092.45 3822.99 1101.09C3739.16 1111.32 3647.99 1118.89 3551.71 1123.32L3468.78 1125.19 3461.72 1147.94C3459.72 1157.75 3458.66 1167.9 3458.66 1178.3L3458.66 1252.64C3458.66 1335.84 3526.08 1403.28 3609.25 1403.28L3762.77 1403.28C3793.96 1403.28 3822.94 1393.79 3846.97 1377.55L3851.37 1373.92 3857.34 1366.52 3876.5 1350.37 3887.64 1336.86C3903.88 1312.82 3913.36 1283.84 3913.36 1252.64L3913.36 1178.3C3913.36 1147.1 3903.88 1118.12 3887.64 1094.08ZM3358.89 83.9999C3539.04 83.9999 3689.34 129.506 3724.1 190.001L3724.59 191.143 3729.07 191.143 3797.51 708.902 3822.99 711.657C4130.35 749.156 4339 822.292 4339 906.373 4339 975.166 4199.32 1036.63 3980.19 1077.25L3948.29 1082.61 3955.41 1095.72C3964.93 1118.24 3970.2 1143.01 3970.2 1169.01L3970.2 1261.94C3970.2 1271.68 3969.46 1281.26 3968.03 1290.61L3963.37 1310.86 3997.07 1307.39C4106.2 1307.39 4194.67 1397.78 4194.67 1509.28 4194.67 1620.78 4106.2 1711.17 3997.07 1711.17 3969.79 1711.17 3943.79 1705.52 3920.15 1695.31L3886.96 1676.9 3888.55 1702.11C3888.55 1989.24 3655.86 2222 3368.82 2222 3081.79 2222 2849.1 1989.24 2849.1 1702.11L2851.48 1664.48 2842.5 1672.04C2810.97 1693.81 2772.95 1706.52 2732.02 1706.52 2622.89 1706.52 2534.42 1616.13 2534.42 1504.63 2534.42 1393.13 2622.89 1302.74 2732.02 1302.74L2758.33 1305.45 2756.61 1299.88C2754.1 1287.63 2752.78 1274.93 2752.78 1261.94L2752.78 1169.01C2752.78 1143.01 2758.05 1118.24 2767.57 1095.72L2773.27 1085.22 2725.81 1077.25C2506.68 1036.63 2367 975.166 2367 906.373 2367 822.292 2575.65 749.156 2883.01 711.657L2919.58 707.702 2987.86 191.143 2993.18 191.143 2993.67 190.001C3028.43 129.506 3178.74 83.9999 3358.89 83.9999Z" fill="#FFFFFF" fill-rule="evenodd"/></g></svg>